{
  "accessors": [
    {
      "bufferView": 2,
      "componentType": 5126,
      "count": 595,
      "max": [
        0.2805788516998291,
        0.092574842274189,
        0.8048491477966309
      ],
      "min": [
        -0.2805788516998291,
        -0.1142822727560997,
        -0.8018782734870911
      ],
      "type": "VEC3"
    },
    {
      "bufferView": 2,
      "byteOffset": 7140,
      "componentType": 5126,
      "count": 595,
      "max": [
        0.999463677406311,
        1.0,
        1.0
      ],
      "min": [
        -0.999463677406311,
        -1.0,
        -1.0
      ],
      "type": "VEC3"
    },
    {
      "bufferView": 1,
      "componentType": 5126,
      "count": 595,
      "max": [
        0.9235190153121948,
        0.44189345836639404
      ],
      "min": [
        0.15867380797863007,
        0.12359698116779327
      ],
      "type": "VEC2"
    },
    {
      "bufferView": 0,
      "componentType": 5125,
      "count": 1452,
      "type": "SCALAR"
    },
    {
      "bufferView": 2,
      "byteOffset": 14280,
      "componentType": 5126,
      "count": 68,
      "max": [
        0.2794259786605835,
        0.04780890420079231,
        0.771528959274292
      ],
      "min": [
        -0.2794259786605835,
        -0.010942108929157257,
        -0.8018782734870911
      ],
      "type": "VEC3"
    },
    {
      "bufferView": 2,
      "byteOffset": 15096,
      "componentType": 5126,
      "count": 68,
      "max": [
        0.22206024825572968,
        1.0,
        3.051944077014923e-05
      ],
      "min": [
        -0.22206024825572968,
        -0.08560671657323837,
        -0.9991846084594727
      ],
      "type": "VEC3"
    },
    {
      "bufferView": 1,
      "byteOffset": 4760,
      "componentType": 5126,
      "count": 68,
      "max": [
        0.8125683069229126,
        0.3100033104419708
      ],
      "min": [
        0.49698060750961304,
        0.19003206491470337
      ],
      "type": "VEC2"
    },
    {
      "bufferView": 0,
      "byteOffset": 5808,
      "componentType": 5125,
      "count": 216,
      "type": "SCALAR"
    },
    {
      "bufferView": 2,
      "byteOffset": 15912,
      "componentType": 5126,
      "count": 2528,
      "max": [
        0.2180337756872177,
        0.5772688388824463,
        0.5370029211044312
      ],
      "min": [
        -0.2180337756872177,
        0.01393272913992405,
        -0.7340674996376038
      ],
      "type": "VEC3"
    },
    {
      "bufferView": 2,
      "byteOffset": 46248,
      "componentType": 5126,
      "count": 2528,
      "max": [
        1.0,
        1.0,
        1.0
      ],
      "min": [
        -1.0,
        -1.0,
        -1.0
      ],
      "type": "VEC3"
    },
    {
      "bufferView": 1,
      "byteOffset": 5304,
      "componentType": 5126,
      "count": 2528,
      "max": [
        0.861042320728302,
        1.0887203216552734
      ],
      "min": [
        0.0,
        0.0
      ],
      "type": "VEC2"
    },
    {
      "bufferView": 0,
      "byteOffset": 6672,
      "componentType": 5125,
      "count": 5589,
      "type": "SCALAR"
    },
    {
      "bufferView": 2,
      "byteOffset": 76584,
      "componentType": 5126,
      "count": 172,
      "max": [
        0.2180337756872177,
        0.4246308505535126,
        0.5345578193664551
      ],
      "min": [
        -0.2180337756872177,
        0.01393272913992405,
        -0.6947230100631714
      ],
      "type": "VEC3"
    },
    {
      "bufferView": 2,
      "byteOffset": 78648,
      "componentType": 5126,
      "count": 172,
      "max": [
        1.0,
        1.0,
        0.9758457541465759
      ],
      "min": [
        -1.0,
        -0.03912581503391266,
        -1.0
      ],
      "type": "VEC3"
    },
    {
      "bufferView": 1,
      "byteOffset": 25528,
      "componentType": 5126,
      "count": 172,
      "max": [
        0.8352407217025757,
        0.6529209613800049
      ],
      "min": [
        0.21798573434352875,
        0.1859365701675415
      ],
      "type": "VEC2"
    },
    {
      "bufferView": 0,
      "byteOffset": 29028,
      "componentType": 5125,
      "count": 366,
      "type": "SCALAR"
    },
    {
      "bufferView": 2,
      "byteOffset": 80712,
      "componentType": 5126,
      "count": 24,
      "max": [
        0.1760348379611969,
        0.3138951361179352,
        0.46007442474365234
      ],
      "min": [
        -0.1760348379611969,
        0.14441172778606415,
        0.4055929481983185
      ],
      "type": "VEC3"
    },
    {
      "bufferView": 2,
      "byteOffset": 81000,
      "componentType": 5126,
      "count": 24,
      "max": [
        0.17618606984615326,
        0.2816590368747711,
        0.9647420048713684
      ],
      "min": [
        -0.17618606984615326,
        0.26319748163223267,
        0.9445013999938965
      ],
      "type": "VEC3"
    },
    {
      "bufferView": 1,
      "byteOffset": 26904,
      "componentType": 5126,
      "count": 24,
      "max": [
        0.41977962851524353,
        0.589891791343689
      ],
      "min": [
        0.24511751532554626,
        0.41343533992767334
      ],
      "type": "VEC2"
    },
    {
      "bufferView": 0,
      "byteOffset": 30492,
      "componentType": 5125,
      "count": 60,
      "type": "SCALAR"
    }
  ],
  "asset": {
    "extras": {
      "author": "PolyDucky (https://sketchfab.com/salphytheunemployed)",
      "license": "CC-BY-4.0 (http://creativecommons.org/licenses/by/4.0/)",
      "source": "https://sketchfab.com/3d-models/sydney-emerald-class-low-poly-8b39b8957231420d919b60febb627bd5",
      "title": "Sydney Emerald-Class Low Poly"
    },
    "generator": "Sketchfab-11.50.0",
    "version": "2.0"
  },
  "bufferViews": [
    {
      "buffer": 0,
      "byteLength": 30732,
      "name": "floatBufferViews",
      "target": 34963
    },
    {
      "buffer": 0,
      "byteLength": 27096,
      "byteOffset": 30732,
      "byteStride": 8,
      "name": "floatBufferViews",
      "target": 34962
    },
    {
      "buffer": 0,
      "byteLength": 81288,
      "byteOffset": 57828,
      "byteStride": 12,
      "name": "floatBufferViews",
      "target": 34962
    }
  ],
  "buffers": [
    {
      "byteLength": 139116,
      "uri": "scene.bin"
    }
  ],
  "images": [
    {
      "uri": "textures/FirstTexture_baseColor.png"
    },
    {
      "uri": "textures/SecondTexture_baseColor.jpeg"
    }
  ],
  "materials": [
    {
      "doubleSided": true,
      "name": "FirstTexture",
      "pbrMetallicRoughness": {
        "baseColorTexture": {
          "index": 0
        },
        "metallicFactor": 0.275
      }
    },
    {
      "doubleSided": true,
      "name": "SecondTexture",
      "pbrMetallicRoughness": {
        "baseColorTexture": {
          "index": 1
        },
        "metallicFactor": 0.2750358611,
        "roughnessFactor": 0.5
      }
    }
  ],
  "meshes": [
    {
      "name": "Object_0",
      "primitives": [
        {
          "attributes": {
            "NORMAL": 1,
            "POSITION": 0,
            "TEXCOORD_0": 2
          },
          "indices": 3,
          "material": 0,
          "mode": 4
        }
      ]
    },
    {
      "name": "Object_1",
      "primitives": [
        {
          "attributes": {
            "NORMAL": 5,
            "POSITION": 4,
            "TEXCOORD_0": 6
          },
          "indices": 7,
          "material": 1,
          "mode": 4
        }
      ]
    },
    {
      "name": "Object_2",
      "primitives": [
        {
          "attributes": {
            "NORMAL": 9,
            "POSITION": 8,
            "TEXCOORD_0": 10
          },
          "indices": 11,
          "material": 0,
          "mode": 4
        }
      ]
    },
    {
      "name": "Object_3",
      "primitives": [
        {
          "attributes": {
            "NORMAL": 13,
            "POSITION": 12,
            "TEXCOORD_0": 14
          },
          "indices": 15,
          "material": 1,
          "mode": 4
        }
      ]
    },
    {
      "name": "Object_4",
      "primitives": [
        {
          "attributes": {
            "NORMAL": 17,
            "POSITION": 16,
            "TEXCOORD_0": 18
          },
          "indices": 19,
          "material": 0,
          "mode": 4
        }
      ]
    }
  ],
  "nodes": [
    {
      "children": [
        1
      ],
      "matrix": [
        1.0,
        0.0,
        0.0,
        0.0,
        0.0,
        2.220446049250313e-16,
        -1.0,
        0.0,
        0.0,
        1.0,
        2.220446049250313e-16,
        0.0,
        0.0,
        0.0,
        0.0,
        1.0
      ],
      "name": "Sketchfab_model"
    },
    {
      "children": [
        2
      ],
      "name": "root"
    },
    {
      "children": [
        3,
        6,
        9
      ],
      "matrix": [
        1.0,
        0.0,
        0.0,
        0.0,
        0.0,
        2.220446049250313e-16,
        1.0,
        0.0,
        0.0,
        -1.0,
        2.220446049250313e-16,
        0.0,
        0.0,
        0.0,
        0.0,
        1.0
      ],
      "name": "GLTF_SceneRootNode"
    },
    {
      "children": [
        4,
        5
      ],
      "name": "Cube_0"
    },
    {
      "mesh": 0,
      "name": "Object_4"
    },
    {
      "mesh": 1,
      "name": "Object_5"
    },
    {
      "children": [
        7,
        8
      ],
      "matrix": [
        1.0549474954605103,
        0.0,
        0.0,
        0.0,
        0.0,
        1.0,
        0.0,
        0.0,
        0.0,
        0.0,
        1.0,
        0.0,
        0.0,
        0.0,
        0.0,
        1.0
      ],
      "name": "Cube.001_4"
    },
    {
      "mesh": 2,
      "name": "Object_7"
    },
    {
      "mesh": 3,
      "name": "Object_8"
    },
    {
      "children": [
        10
      ],
      "matrix": [
        1.0549474954605103,
        0.0,
        0.0,
        0.0,
        0.0,
        1.0,
        0.0,
        0.0,
        0.0,
        0.0,
        1.0,
        0.0,
        0.0,
        0.0,
        0.0,
        1.0
      ],
      "name": "Cube.002_6"
    },
    {
      "mesh": 4,
      "name": "Object_10"
    }
  ],
  "samplers": [
    {
      "magFilter": 9729,
      "minFilter": 9987,
      "wrapS": 10497,
      "wrapT": 10497
    }
  ],
  "scene": 0,
  "scenes": [
    {
      "name": "Sketchfab_Scene",
      "nodes": [
        0
      ]
    }
  ],
  "textures": [
    {
      "sampler": 0,
      "source": 0
    },
    {
      "sampler": 0,
      "source": 1
    }
  ]
}
