{
  "accessors": [
    {
      "bufferView": 2,
      "componentType": 5126,
      "count": 940,
      "max": [
        1.0037598609924316,
        1.0037598609924316,
        3.8923666477203369
      ],
      "min": [
        -1.0037598609924316,
        -1.0037598609924316,
        -0.13036656379699707
      ],
      "type": "VEC3"
    },
    {
      "bufferView": 2,
      "byteOffset": 11280,
      "componentType": 5126,
      "count": 940,
      "max": [
        1,
        1,
        1
      ],
      "min": [
        -1,
        -1,
        -1
      ],
      "type": "VEC3"
    },
    {
      "bufferView": 1,
      "componentType": 5126,
      "count": 940,
      "max": [
        0.65087997913360596,
        0.94475799798965454
      ],
      "min": [
        0.032086856663227081,
        0.055242002010345459
      ],
      "type": "VEC2"
    },
    {
      "bufferView": 0,
      "componentType": 5125,
      "count": 1410,
      "max": [
        939
      ],
      "min": [
        0
      ],
      "type": "SCALAR"
    },
    {
      "bufferView": 2,
      "byteOffset": 22560,
      "componentType": 5126,
      "count": 975,
      "max": [
        1.1534742116928101,
        1,
        1
      ],
      "min": [
        -0.031180620193481445,
        -1.2839986085891724,
        -1.3984113931655884
      ],
      "type": "VEC3"
    },
    {
      "bufferView": 2,
      "byteOffset": 34260,
      "componentType": 5126,
      "count": 975,
      "max": [
        1,
        1,
        1
      ],
      "min": [
        -1,
        -1,
        -1
      ],
      "type": "VEC3"
    },
    {
      "bufferView": 1,
      "byteOffset": 7520,
      "componentType": 5126,
      "count": 975,
      "max": [
        0.96647799015045166,
        0.93820619583129883
      ],
      "min": [
        0.6524088978767395,
        0.022421263158321381
      ],
      "type": "VEC2"
    },
    {
      "bufferView": 0,
      "byteOffset": 5640,
      "componentType": 5125,
      "count": 1494,
      "max": [
        974
      ],
      "min": [
        0
      ],
      "type": "SCALAR"
    },
    {
      "bufferView": 2,
      "byteOffset": 45960,
      "componentType": 5126,
      "count": 24,
      "max": [
        1,
        1,
        1
      ],
      "min": [
        -1,
        -1,
        -1
      ],
      "type": "VEC3"
    },
    {
      "bufferView": 2,
      "byteOffset": 46248,
      "componentType": 5126,
      "count": 24,
      "max": [
        1,
        1,
        1
      ],
      "min": [
        -1,
        -1,
        -1
      ],
      "type": "VEC3"
    },
    {
      "bufferView": 1,
      "byteOffset": 15320,
      "componentType": 5126,
      "count": 24,
      "max": [
        0.24300789833068848,
        0.93820619583129883
      ],
      "min": [
        0.21808075904846191,
        0.14053884148597717
      ],
      "type": "VEC2"
    },
    {
      "bufferView": 0,
      "byteOffset": 11616,
      "componentType": 5125,
      "count": 36,
      "max": [
        23
      ],
      "min": [
        0
      ],
      "type": "SCALAR"
    },
    {
      "bufferView": 2,
      "byteOffset": 46536,
      "componentType": 5126,
      "count": 88,
      "max": [
        1,
        1,
        1
      ],
      "min": [
        -1,
        -1,
        -1
      ],
      "type": "VEC3"
    },
    {
      "bufferView": 2,
      "byteOffset": 47592,
      "componentType": 5126,
      "count": 88,
      "max": [
        1,
        1,
        1
      ],
      "min": [
        -1,
        -1,
        -1
      ],
      "type": "VEC3"
    },
    {
      "bufferView": 1,
      "byteOffset": 15512,
      "componentType": 5126,
      "count": 88,
      "max": [
        0.96647799015045166,
        0.93820619583129883
      ],
      "min": [
        0.37311005592346191,
        -0.056323811411857605
      ],
      "type": "VEC2"
    },
    {
      "bufferView": 0,
      "byteOffset": 11760,
      "componentType": 5125,
      "count": 132,
      "max": [
        87
      ],
      "min": [
        0
      ],
      "type": "SCALAR"
    },
    {
      "bufferView": 2,
      "byteOffset": 48648,
      "componentType": 5126,
      "count": 414,
      "max": [
        1,
        1,
        1.1392332315444946
      ],
      "min": [
        -1,
        -1,
        -1
      ],
      "type": "VEC3"
    },
    {
      "bufferView": 2,
      "byteOffset": 53616,
      "componentType": 5126,
      "count": 414,
      "max": [
        1,
        1,
        1
      ],
      "min": [
        -1,
        -1,
        -1
      ],
      "type": "VEC3"
    },
    {
      "bufferView": 1,
      "byteOffset": 16216,
      "componentType": 5126,
      "count": 414,
      "max": [
        0.96647799015045166,
        0.93820619583129883
      ],
      "min": [
        0.2808307409286499,
        -0.016951277852058411
      ],
      "type": "VEC2"
    },
    {
      "bufferView": 0,
      "byteOffset": 12288,
      "componentType": 5125,
      "count": 732,
      "max": [
        413
      ],
      "min": [
        0
      ],
      "type": "SCALAR"
    },
    {
      "bufferView": 2,
      "byteOffset": 58584,
      "componentType": 5126,
      "count": 24,
      "max": [
        1,
        1,
        1
      ],
      "min": [
        -1,
        -1,
        -1
      ],
      "type": "VEC3"
    },
    {
      "bufferView": 2,
      "byteOffset": 58872,
      "componentType": 5126,
      "count": 24,
      "max": [
        1,
        1,
        1
      ],
      "min": [
        -1,
        -1,
        -1
      ],
      "type": "VEC3"
    },
    {
      "bufferView": 1,
      "byteOffset": 19528,
      "componentType": 5126,
      "count": 24,
      "max": [
        0.24300789833068848,
        0.93820619583129883
      ],
      "min": [
        0.21808075904846191,
        0.14053884148597717
      ],
      "type": "VEC2"
    },
    {
      "bufferView": 0,
      "byteOffset": 15216,
      "componentType": 5125,
      "count": 36,
      "max": [
        23
      ],
      "min": [
        0
      ],
      "type": "SCALAR"
    },
    {
      "bufferView": 2,
      "byteOffset": 59160,
      "componentType": 5126,
      "count": 88,
      "max": [
        1,
        1,
        1
      ],
      "min": [
        -1,
        -1,
        -1
      ],
      "type": "VEC3"
    },
    {
      "bufferView": 2,
      "byteOffset": 60216,
      "componentType": 5126,
      "count": 88,
      "max": [
        1,
        1,
        1
      ],
      "min": [
        -1,
        -1,
        -1
      ],
      "type": "VEC3"
    },
    {
      "bufferView": 1,
      "byteOffset": 19720,
      "componentType": 5126,
      "count": 88,
      "max": [
        0.96647799015045166,
        0.93820619583129883
      ],
      "min": [
        0.6290314793586731,
        0.061793766915798187
      ],
      "type": "VEC2"
    },
    {
      "bufferView": 0,
      "byteOffset": 15360,
      "componentType": 5125,
      "count": 132,
      "max": [
        87
      ],
      "min": [
        0
      ],
      "type": "SCALAR"
    },
    {
      "bufferView": 2,
      "byteOffset": 61272,
      "componentType": 5126,
      "count": 24,
      "max": [
        1,
        1,
        1
      ],
      "min": [
        -1,
        -1,
        -1
      ],
      "type": "VEC3"
    },
    {
      "bufferView": 2,
      "byteOffset": 61560,
      "componentType": 5126,
      "count": 24,
      "max": [
        1,
        1,
        1
      ],
      "min": [
        -1,
        -1,
        -1
      ],
      "type": "VEC3"
    },
    {
      "bufferView": 1,
      "byteOffset": 20424,
      "componentType": 5126,
      "count": 24,
      "max": [
        0.28238040208816528,
        0.97757869958877563
      ],
      "min": [
        0.25745326280593872,
        0.17991137504577637
      ],
      "type": "VEC2"
    },
    {
      "bufferView": 0,
      "byteOffset": 15888,
      "componentType": 5125,
      "count": 36,
      "max": [
        23
      ],
      "min": [
        0
      ],
      "type": "SCALAR"
    },
    {
      "bufferView": 2,
      "byteOffset": 61848,
      "componentType": 5126,
      "count": 1948,
      "max": [
        0.74571323394775391,
        -0.83135318756103516,
        2.7461581230163574
      ],
      "min": [
        -0.74571323394775391,
        -0.87956547737121582,
        0.27169513702392578
      ],
      "type": "VEC3"
    },
    {
      "bufferView": 2,
      "byteOffset": 85224,
      "componentType": 5126,
      "count": 1948,
      "max": [
        1,
        1,
        1
      ],
      "min": [
        -1,
        -1,
        -1
      ],
      "type": "VEC3"
    },
    {
      "bufferView": 1,
      "byteOffset": 20616,
      "componentType": 5126,
      "count": 1948,
      "max": [
        0.087820231914520264,
        0.85439634323120117
      ],
      "min": [
        0.063209682703018188,
        0.066858619451522827
      ],
      "type": "VEC2"
    },
    {
      "bufferView": 0,
      "byteOffset": 16032,
      "componentType": 5125,
      "count": 3144,
      "max": [
        1947
      ],
      "min": [
        0
      ],
      "type": "SCALAR"
    },
    {
      "bufferView": 2,
      "byteOffset": 108600,
      "componentType": 5126,
      "count": 1948,
      "max": [
        0.74571323394775391,
        -0.83135318756103516,
        2.7461581230163574
      ],
      "min": [
        -0.74571323394775391,
        -0.87956547737121582,
        0.27169513702392578
      ],
      "type": "VEC3"
    },
    {
      "bufferView": 2,
      "byteOffset": 131976,
      "componentType": 5126,
      "count": 1948,
      "max": [
        1,
        1,
        1
      ],
      "min": [
        -1,
        -1,
        -1
      ],
      "type": "VEC3"
    },
    {
      "bufferView": 1,
      "byteOffset": 36200,
      "componentType": 5126,
      "count": 1948,
      "max": [
        0.087820231914520264,
        0.85439634323120117
      ],
      "min": [
        0.063209682703018188,
        0.066858619451522827
      ],
      "type": "VEC2"
    },
    {
      "bufferView": 0,
      "byteOffset": 28608,
      "componentType": 5125,
      "count": 3144,
      "max": [
        1947
      ],
      "min": [
        0
      ],
      "type": "SCALAR"
    },
    {
      "bufferView": 2,
      "byteOffset": 155352,
      "componentType": 5126,
      "count": 1948,
      "max": [
        0.74571323394775391,
        -0.83135318756103516,
        2.7461581230163574
      ],
      "min": [
        -0.74571323394775391,
        -0.87956547737121582,
        0.27169513702392578
      ],
      "type": "VEC3"
    },
    {
      "bufferView": 2,
      "byteOffset": 178728,
      "componentType": 5126,
      "count": 1948,
      "max": [
        1,
        1,
        1
      ],
      "min": [
        -1,
        -1,
        -1
      ],
      "type": "VEC3"
    },
    {
      "bufferView": 1,
      "byteOffset": 51784,
      "componentType": 5126,
      "count": 1948,
      "max": [
        0.087820231914520264,
        0.85439634323120117
      ],
      "min": [
        0.063209682703018188,
        0.066858619451522827
      ],
      "type": "VEC2"
    },
    {
      "bufferView": 0,
      "byteOffset": 41184,
      "componentType": 5125,
      "count": 3144,
      "max": [
        1947
      ],
      "min": [
        0
      ],
      "type": "SCALAR"
    }
  ],
  "asset": {
    "extras": {
      "author": "chongdashu (https://sketchfab.com/chongdashu)",
      "license": "CC-BY-4.0 (http://creativecommons.org/licenses/by/4.0/)",
      "source": "https://sketchfab.com/3d-models/london-telephone-box-725de9fd2b784fbd9ae995fbea498f62",
      "title": "London Telephone Box"
    },
    "generator": "Sketchfab-8.72.3",
    "version": "2.0"
  },
  "bufferViews": [
    {
      "buffer": 0,
      "byteLength": 53760,
      "byteOffset": 0,
      "name": "floatBufferViews",
      "target": 34963
    },
    {
      "buffer": 0,
      "byteLength": 67368,
      "byteOffset": 53760,
      "byteStride": 8,
      "name": "floatBufferViews",
      "target": 34962
    },
    {
      "buffer": 0,
      "byteLength": 202104,
      "byteOffset": 121128,
      "byteStride": 12,
      "name": "floatBufferViews",
      "target": 34962
    }
  ],
  "buffers": [
    {
      "byteLength": 323232,
      "uri": "scene.bin"
    }
  ],
  "images": [
    {
      "uri": "textures/Material_baseColor.png"
    }
  ],
  "materials": [
    {
      "doubleSided": true,
      "emissiveFactor": [
        0,
        0,
        0
      ],
      "name": "Material",
      "pbrMetallicRoughness": {
        "baseColorFactor": [
          1,
          1,
          1,
          1
        ],
        "baseColorTexture": {
          "index": 0,
          "texCoord": 0
        },
        "metallicFactor": 0,
        "roughnessFactor": 0.80404082057734572
      }
    }
  ],
  "meshes": [
    {
      "name": "Cube_Material_0",
      "primitives": [
        {
          "attributes": {
            "NORMAL": 1,
            "POSITION": 0,
            "TEXCOORD_0": 2
          },
          "indices": 3,
          "material": 0,
          "mode": 4
        }
      ]
    },
    {
      "name": "Cube.005_Material_0",
      "primitives": [
        {
          "attributes": {
            "NORMAL": 5,
            "POSITION": 4,
            "TEXCOORD_0": 6
          },
          "indices": 7,
          "material": 0,
          "mode": 4
        }
      ]
    },
    {
      "name": "Cube.006_Material_0",
      "primitives": [
        {
          "attributes": {
            "NORMAL": 9,
            "POSITION": 8,
            "TEXCOORD_0": 10
          },
          "indices": 11,
          "material": 0,
          "mode": 4
        }
      ]
    },
    {
      "name": "Cube.007_Material_0",
      "primitives": [
        {
          "attributes": {
            "NORMAL": 13,
            "POSITION": 12,
            "TEXCOORD_0": 14
          },
          "indices": 15,
          "material": 0,
          "mode": 4
        }
      ]
    },
    {
      "name": "Cube.008_Material_0",
      "primitives": [
        {
          "attributes": {
            "NORMAL": 17,
            "POSITION": 16,
            "TEXCOORD_0": 18
          },
          "indices": 19,
          "material": 0,
          "mode": 4
        }
      ]
    },
    {
      "name": "Cube.009_Material_0",
      "primitives": [
        {
          "attributes": {
            "NORMAL": 21,
            "POSITION": 20,
            "TEXCOORD_0": 22
          },
          "indices": 23,
          "material": 0,
          "mode": 4
        }
      ]
    },
    {
      "name": "Cube.010_Material_0",
      "primitives": [
        {
          "attributes": {
            "NORMAL": 25,
            "POSITION": 24,
            "TEXCOORD_0": 26
          },
          "indices": 27,
          "material": 0,
          "mode": 4
        }
      ]
    },
    {
      "name": "Cube.011_Material_0",
      "primitives": [
        {
          "attributes": {
            "NORMAL": 29,
            "POSITION": 28,
            "TEXCOORD_0": 30
          },
          "indices": 31,
          "material": 0,
          "mode": 4
        }
      ]
    },
    {
      "name": "Cube.002_Material_0",
      "primitives": [
        {
          "attributes": {
            "NORMAL": 33,
            "POSITION": 32,
            "TEXCOORD_0": 34
          },
          "indices": 35,
          "material": 0,
          "mode": 4
        }
      ]
    },
    {
      "name": "Cube.003_Material_0",
      "primitives": [
        {
          "attributes": {
            "NORMAL": 37,
            "POSITION": 36,
            "TEXCOORD_0": 38
          },
          "indices": 39,
          "material": 0,
          "mode": 4
        }
      ]
    },
    {
      "name": "Cube.004_Material_0",
      "primitives": [
        {
          "attributes": {
            "NORMAL": 41,
            "POSITION": 40,
            "TEXCOORD_0": 42
          },
          "indices": 43,
          "material": 0,
          "mode": 4
        }
      ]
    }
  ],
  "nodes": [
    {
      "children": [
        1
      ],
      "name": "RootNode (gltf orientation matrix)",
      "rotation": [
        -0.70710678118654746,
        -0,
        -0,
        0.70710678118654757
      ]
    },
    {
      "children": [
        2
      ],
      "name": "RootNode (model correction matrix)"
    },
    {
      "children": [
        3
      ],
      "matrix": [
        1,
        0,
        0,
        0,
        0,
        0,
        1,
        0,
        0,
        -1,
        0,
        0,
        0,
        0,
        0,
        1
      ],
      "name": "162a2e43bac74276989a4a4dbba69caf.fbx"
    },
    {
      "children": [
        4,
        6,
        8,
        10,
        12,
        14,
        16,
        18,
        20,
        22,
        24
      ],
      "name": "RootNode"
    },
    {
      "children": [
        5
      ],
      "matrix": [
        100,
        0,
        0,
        0,
        0,
        -1.6292067939183141e-05,
        -99.999999999998678,
        0,
        0,
        99.999999999998678,
        -1.6292067939183141e-05,
        0,
        0,
        0,
        0,
        1
      ],
      "name": "Cube"
    },
    {
      "mesh": 0,
      "name": "Cube_Material_0"
    },
    {
      "children": [
        7
      ],
      "matrix": [
        29.715028762817383,
        0,
        0,
        0,
        -0,
        -4.8411926741860201e-06,
        -29.715028762816988,
        0,
        0,
        43.471099853515049,
        -7.0823411220449087e-06,
        0,
        -82.253875732421875,
        183.78538513183594,
        39.784156799316406,
        1
      ],
      "name": "Cube.005"
    },
    {
      "mesh": 1,
      "name": "Cube.005_Material_0"
    },
    {
      "children": [
        9
      ],
      "matrix": [
        20.182750701904297,
        0,
        0,
        0,
        -0,
        -5.957048988846386e-06,
        -36.564105987548345,
        0,
        0,
        1.2335041761398153,
        -2.0096333840936264e-07,
        0,
        -63.302127838134766,
        140.14546203613281,
        -39.717952728271484,
        1
      ],
      "name": "Cube.006"
    },
    {
      "mesh": 2,
      "name": "Cube.006_Material_0"
    },
    {
      "children": [
        11
      ],
      "matrix": [
        12.192710504908028,
        5.607103111308899e-09,
        -6.3565075803540685,
        0,
        -4.2875024995095012,
        -1.5129921174744797e-06,
        -8.2240563870572849,
        0,
        -2.3092984960068551e-07,
        3.0475432872771808,
        -4.402689492940053e-07,
        0,
        -70.043281555175781,
        146.32012939453125,
        -21.584325790405273,
        1
      ],
      "name": "Cube.007"
    },
    {
      "mesh": 3,
      "name": "Cube.007_Material_0"
    },
    {
      "children": [
        13
      ],
      "matrix": [
        -8.8935836431005306,
        0,
        -10.486732000903238,
        0,
        -7.0733629235711097,
        1.8058266609792995e-06,
        5.9987749084621811,
        0,
        4.5254705076027994e-07,
        3.0475432872771639,
        -3.837959293164066e-07,
        0,
        -62.067287445068359,
        183.73471069335938,
        -58.640403747558594,
        1
      ],
      "name": "Cube.008"
    },
    {
      "mesh": 4,
      "name": "Cube.008_Material_0"
    },
    {
      "children": [
        15
      ],
      "matrix": [
        20.182750701904297,
        0,
        0,
        0,
        -0,
        -5.957048988846386e-06,
        -36.564105987548345,
        0,
        0,
        1.2335041761398153,
        -2.0096333840936264e-07,
        0,
        -63.302127838134766,
        178.26470947265625,
        -39.717952728271484,
        1
      ],
      "name": "Cube.009"
    },
    {
      "mesh": 5,
      "name": "Cube.009_Material_0"
    },
    {
      "children": [
        17
      ],
      "matrix": [
        11.456942346475703,
        -2.7741880503385486e-07,
        7.6030158585343637,
        0,
        5.1282792843802989,
        -1.6351965873582077e-06,
        -7.7277755552514824,
        0,
        1.1610635632202214e-07,
        1.0158097743987877,
        -1.3789516110638396e-07,
        0,
        -73.812652587890625,
        149.91239929199219,
        -20.044523239135742,
        1
      ],
      "name": "Cube.010"
    },
    {
      "mesh": 6,
      "name": "Cube.010_Material_0"
    },
    {
      "children": [
        19
      ],
      "matrix": [
        1.4886971712112427,
        0,
        0,
        0,
        -0,
        -1.2897367135984595e-05,
        -79.163475036620042,
        0,
        0,
        70.336944580077201,
        -1.1459342797331922e-05,
        0,
        -85.968360900878906,
        188.19638061523438,
        1.2026025056838989,
        1
      ],
      "name": "Cube.011"
    },
    {
      "mesh": 7,
      "name": "Cube.011_Material_0"
    },
    {
      "children": [
        21
      ],
      "matrix": [
        1.9470718848335622e-05,
        0,
        -99.99999999999811,
        0,
        -99.999999999996788,
        -1.6292067961387602e-05,
        -1.9470718859437852e-05,
        0,
        -1.6292067955836487e-05,
        99.999999999998693,
        -3.1974423109204508e-12,
        0,
        0,
        0,
        0,
        1
      ],
      "name": "Cube.002"
    },
    {
      "mesh": 8,
      "name": "Cube.002_Material_0"
    },
    {
      "children": [
        23
      ],
      "matrix": [
        49.999987152493851,
        -5.5511151231257827e-15,
        86.60254779595374,
        0,
        86.602547795952574,
        -1.6292067961387602e-05,
        -49.999987152493205,
        0,
        1.4109345930490846e-05,
        99.999999999998664,
        -8.1460318712700541e-06,
        0,
        40.266181945800781,
        -9.3132257461547852e-08,
        110.09487915039062,
        1
      ],
      "name": "Cube.003"
    },
    {
      "mesh": 9,
      "name": "Cube.003_Material_0"
    },
    {
      "children": [
        25
      ],
      "matrix": [
        -99.999999999992411,
        1.2246465878873718e-14,
        3.8941437775530106e-05,
        0,
        3.8941437775529998e-05,
        7.5497899820753389e-06,
        99.999999999992127,
        0,
        -2.9277502948264183e-12,
        99.999999999999702,
        -7.5497899709731087e-06,
        0,
        0,
        0,
        0,
        1
      ],
      "name": "Cube.004"
    },
    {
      "mesh": 10,
      "name": "Cube.004_Material_0"
    }
  ],
  "samplers": [
    {
      "magFilter": 9729,
      "minFilter": 9987,
      "wrapS": 10497,
      "wrapT": 10497
    }
  ],
  "scene": 0,
  "scenes": [
    {
      "name": "OSG_Scene",
      "nodes": [
        0
      ]
    }
  ],
  "textures": [
    {
      "sampler": 0,
      "source": 0
    }
  ]
}

