{
  "accessors": [
    {
      "bufferView": 2,
      "componentType": 5126,
      "count": 820,
      "max": [
        6.367347240447998,
        47.235244750976562,
        6.367347240447998
      ],
      "min": [
        -6.367347240447998,
        0.11975889652967453,
        -6.367347240447998
      ],
      "type": "VEC3"
    },
    {
      "bufferView": 2,
      "byteOffset": 9840,
      "componentType": 5126,
      "count": 820,
      "max": [
        1,
        0.99890357255935669,
        1
      ],
      "min": [
        -1,
        -1,
        -1
      ],
      "type": "VEC3"
    },
    {
      "bufferView": 3,
      "componentType": 5126,
      "count": 820,
      "max": [
        1,
        0.24148884415626526,
        1,
        1
      ],
      "min": [
        -1,
        -0.24148854613304138,
        -1,
        1
      ],
      "type": "VEC4"
    },
    {
      "bufferView": 1,
      "componentType": 5126,
      "count": 820,
      "max": [
        0.95054137706756592,
        1.4625954627990723
      ],
      "min": [
        -0.46548977494239807,
        -0.50579440593719482
      ],
      "type": "VEC2"
    },
    {
      "bufferView": 0,
      "componentType": 5125,
      "count": 4512,
      "max": [
        819
      ],
      "min": [
        0
      ],
      "type": "SCALAR"
    },
    {
      "bufferView": 2,
      "byteOffset": 19680,
      "componentType": 5126,
      "count": 1280,
      "max": [
        5.8973631858825684,
        47.235244750976562,
        5.8973631858825684
      ],
      "min": [
        -5.8973631858825684,
        -0.041018594056367874,
        -5.8973631858825684
      ],
      "type": "VEC3"
    },
    {
      "bufferView": 2,
      "byteOffset": 35040,
      "componentType": 5126,
      "count": 1280,
      "max": [
        1,
        1,
        1
      ],
      "min": [
        -1,
        -0.99904996156692505,
        -1
      ],
      "type": "VEC3"
    },
    {
      "bufferView": 1,
      "byteOffset": 6560,
      "componentType": 5126,
      "count": 1280,
      "max": [
        0.99665868282318115,
        1.501165509223938
      ],
      "min": [
        -0.46548977494239807,
        0.011690051294863224
      ],
      "type": "VEC2"
    },
    {
      "bufferView": 0,
      "byteOffset": 18048,
      "componentType": 5125,
      "count": 6480,
      "max": [
        1279
      ],
      "min": [
        0
      ],
      "type": "SCALAR"
    },
    {
      "bufferView": 2,
      "byteOffset": 50400,
      "componentType": 5126,
      "count": 520,
      "max": [
        5.8863639831542969,
        39.926963806152344,
        5.8863639831542969
      ],
      "min": [
        -5.8863639831542969,
        0.84846967458724976,
        -5.8863639831542969
      ],
      "type": "VEC3"
    },
    {
      "bufferView": 2,
      "byteOffset": 56640,
      "componentType": 5126,
      "count": 520,
      "max": [
        1,
        0.56101500988006592,
        1
      ],
      "min": [
        -1,
        -1,
        -1
      ],
      "type": "VEC3"
    },
    {
      "bufferView": 1,
      "byteOffset": 16800,
      "componentType": 5126,
      "count": 520,
      "max": [
        0.97620093822479248,
        0.59836441278457642
      ],
      "min": [
        0.79586678743362427,
        0.011690051294863224
      ],
      "type": "VEC2"
    },
    {
      "bufferView": 0,
      "byteOffset": 43968,
      "componentType": 5125,
      "count": 2778,
      "max": [
        519
      ],
      "min": [
        0
      ],
      "type": "SCALAR"
    },
    {
      "bufferView": 2,
      "byteOffset": 62880,
      "componentType": 5126,
      "count": 718,
      "max": [
        2.9493558406829834,
        47.336162567138672,
        2.9493558406829834
      ],
      "min": [
        -2.9493558406829834,
        46.278831481933594,
        -2.9493558406829834
      ],
      "type": "VEC3"
    },
    {
      "bufferView": 2,
      "byteOffset": 71496,
      "componentType": 5126,
      "count": 718,
      "max": [
        0.99419605731964111,
        1,
        0.99419605731964111
      ],
      "min": [
        -0.99419605731964111,
        -1,
        -0.99419617652893066
      ],
      "type": "VEC3"
    },
    {
      "bufferView": 1,
      "byteOffset": 20960,
      "componentType": 5126,
      "count": 718,
      "max": [
        1.2934783697128296,
        0.93192142248153687
      ],
      "min": [
        0.91462570428848267,
        -0.41315636038780212
      ],
      "type": "VEC2"
    },
    {
      "bufferView": 0,
      "byteOffset": 55080,
      "componentType": 5125,
      "count": 3768,
      "max": [
        717
      ],
      "min": [
        0
      ],
      "type": "SCALAR"
    },
    {
      "bufferView": 2,
      "byteOffset": 80112,
      "componentType": 5126,
      "count": 132,
      "max": [
        2.6374850273132324,
        40.244483947753906,
        2.6374850273132324
      ],
      "min": [
        -2.6374850273132324,
        39.895389556884766,
        -2.6374850273132324
      ],
      "type": "VEC3"
    },
    {
      "bufferView": 2,
      "byteOffset": 81696,
      "componentType": 5126,
      "count": 132,
      "max": [
        0.67574554681777954,
        1,
        0.67574554681777954
      ],
      "min": [
        -0.67574554681777954,
        -1,
        -0.67574554681777954
      ],
      "type": "VEC3"
    },
    {
      "bufferView": 1,
      "byteOffset": 26704,
      "componentType": 5126,
      "count": 132,
      "max": [
        1.0000250339508057,
        0.7991674542427063
      ],
      "min": [
        0.93827289342880249,
        0.42157593369483948
      ],
      "type": "VEC2"
    },
    {
      "bufferView": 0,
      "byteOffset": 70152,
      "componentType": 5125,
      "count": 576,
      "max": [
        131
      ],
      "min": [
        0
      ],
      "type": "SCALAR"
    }
  ],
  "asset": {
    "extras": {
      "author": "rodrigogelmi (https://sketchfab.com/rodrigogelmi)",
      "license": "CC-BY-4.0 (http://creativecommons.org/licenses/by/4.0/)",
      "source": "https://sketchfab.com/3d-models/beer-bottle-c3de7f8b092e4092aef14d4ffc9fac7f",
      "title": "Beer Bottle"
    },
    "generator": "Sketchfab-8.55.0",
    "version": "2.0"
  },
  "bufferViews": [
    {
      "buffer": 0,
      "byteLength": 72456,
      "byteOffset": 0,
      "name": "floatBufferViews",
      "target": 34963
    },
    {
      "buffer": 0,
      "byteLength": 27760,
      "byteOffset": 72456,
      "byteStride": 8,
      "name": "floatBufferViews",
      "target": 34962
    },
    {
      "buffer": 0,
      "byteLength": 83280,
      "byteOffset": 100216,
      "byteStride": 12,
      "name": "floatBufferViews",
      "target": 34962
    },
    {
      "buffer": 0,
      "byteLength": 13120,
      "byteOffset": 183496,
      "byteStride": 16,
      "name": "floatBufferViews",
      "target": 34962
    }
  ],
  "buffers": [
    {
      "byteLength": 196616,
      "uri": "scene.bin"
    }
  ],
  "images": [
    {
      "uri": "textures/VIDRO_FORA_normal.png"
    }
  ],
  "materials": [
    {
      "alphaMode": "BLEND",
      "doubleSided": true,
      "emissiveFactor": [
        0,
        0,
        0
      ],
      "name": "VIDRO_FORA",
      "normalTexture": {
        "index": 0,
        "scale": 0.59756701870869289,
        "texCoord": 0
      },
      "pbrMetallicRoughness": {
        "baseColorFactor": [
          0.033466086216685176,
          0.10556041286686094,
          0.017978781720062162,
          0
        ],
        "metallicFactor": 0.7738920404453119,
        "roughnessFactor": 0.11723333880548918
      }
    },
    {
      "doubleSided": true,
      "emissiveFactor": [
        0,
        0,
        0
      ],
      "name": "VIDRO_DENTRO",
      "pbrMetallicRoughness": {
        "baseColorFactor": [
          0.084892499999999885,
          0.20886099999999999,
          0.054420599999999937,
          1
        ],
        "metallicFactor": 0,
        "roughnessFactor": 0.59999999999999998
      }
    },
    {
      "alphaMode": "BLEND",
      "doubleSided": true,
      "emissiveFactor": [
        0,
        0,
        0
      ],
      "name": "LIQUIDO",
      "pbrMetallicRoughness": {
        "baseColorFactor": [
          0.56769700000000001,
          0.59999999999999998,
          0.21879599999999999,
          0.58540667238202948
        ],
        "metallicFactor": 0,
        "roughnessFactor": 0.59999999999999998
      }
    },
    {
      "doubleSided": true,
      "emissiveFactor": [
        0,
        0,
        0
      ],
      "name": "TAMPA",
      "pbrMetallicRoughness": {
        "baseColorFactor": [
          0,
          0.088607599999999995,
          0.0257913,
          1
        ],
        "metallicFactor": 0,
        "roughnessFactor": 0.15371437778547933
      }
    },
    {
      "doubleSided": true,
      "emissiveFactor": [
        0,
        0,
        0
      ],
      "name": "LIMITE_LIQUIDO",
      "pbrMetallicRoughness": {
        "baseColorFactor": [
          0.17534715041373466,
          0.17534715041373466,
          0.17534715041373466,
          1
        ],
        "metallicFactor": 0.85901446473195564,
        "roughnessFactor": 0.34219974584876178
      }
    }
  ],
  "meshes": [
    {
      "name": "GARRAFA_VIDRO FORA_0",
      "primitives": [
        {
          "attributes": {
            "NORMAL": 1,
            "POSITION": 0,
            "TANGENT": 2,
            "TEXCOORD_0": 3
          },
          "indices": 4,
          "material": 0,
          "mode": 4
        }
      ]
    },
    {
      "name": "GARRAFA_VIDRO DENTRO_0",
      "primitives": [
        {
          "attributes": {
            "NORMAL": 6,
            "POSITION": 5,
            "TEXCOORD_0": 7
          },
          "indices": 8,
          "material": 1,
          "mode": 4
        }
      ]
    },
    {
      "name": "GARRAFA_LIQUIDO_0",
      "primitives": [
        {
          "attributes": {
            "NORMAL": 10,
            "POSITION": 9,
            "TEXCOORD_0": 11
          },
          "indices": 12,
          "material": 2,
          "mode": 4
        }
      ]
    },
    {
      "name": "GARRAFA_TAMPA_0",
      "primitives": [
        {
          "attributes": {
            "NORMAL": 14,
            "POSITION": 13,
            "TEXCOORD_0": 15
          },
          "indices": 16,
          "material": 3,
          "mode": 4
        }
      ]
    },
    {
      "name": "GARRAFA_LIMITE LIQUIDO_0",
      "primitives": [
        {
          "attributes": {
            "NORMAL": 18,
            "POSITION": 17,
            "TEXCOORD_0": 19
          },
          "indices": 20,
          "material": 4,
          "mode": 4
        }
      ]
    }
  ],
  "nodes": [
    {
      "children": [
        1
      ],
      "name": "RootNode (gltf orientation matrix)",
      "rotation": [
        -0.70710678118654746,
        -0,
        -0,
        0.70710678118654757
      ]
    },
    {
      "children": [
        2
      ],
      "name": "RootNode (model correction matrix)"
    },
    {
      "children": [
        3
      ],
      "matrix": [
        1,
        0,
        0,
        0,
        0,
        0,
        1,
        0,
        0,
        -1,
        0,
        0,
        0,
        0,
        0,
        1
      ],
      "name": "69f4efd2244c4ee491fe76712f05d084.fbx"
    },
    {
      "children": [
        4,
        10,
        12
      ],
      "name": "RootNode"
    },
    {
      "children": [
        5,
        6,
        7,
        8,
        9
      ],
      "name": "GARRAFA"
    },
    {
      "mesh": 0,
      "name": "GARRAFA_VIDRO FORA_0"
    },
    {
      "mesh": 1,
      "name": "GARRAFA_VIDRO DENTRO_0"
    },
    {
      "mesh": 2,
      "name": "GARRAFA_LIQUIDO_0"
    },
    {
      "mesh": 3,
      "name": "GARRAFA_TAMPA_0"
    },
    {
      "mesh": 4,
      "name": "GARRAFA_LIMITE LIQUIDO_0"
    },
    {
      "children": [
        11
      ],
      "matrix": [
        0.051822156714015022,
        -0.070838043995402361,
        -0.99614077097386866,
        0,
        0.0024428480181596796,
        0.99748706457118375,
        -0.070806698176961724,
        0,
        0.99865334153902874,
        0.0012359353011468996,
        0.051864977555795222,
        0,
        -0.2642485499382019,
        32.072032928466797,
        125.59191131591797,
        1
      ],
      "name": "Camera"
    },
    {
      "name": ""
    },
    {
      "children": [
        13
      ],
      "matrix": [
        0.70710676573223719,
        0,
        0.70710679664085752,
        0,
        -0.61237244392818246,
        0.50000001261839189,
        0.61237241716053226,
        0,
        -0.3535534072429794,
        -0.86602539649920662,
        0.35355339178866885,
        0,
        -200,
        200,
        200,
        1
      ],
      "name": "Directional Light"
    },
    {
      "children": [
        14
      ],
      "matrix": [
        1,
        0,
        0,
        0,
        0,
        2.2204460492503131e-16,
        1,
        0,
        0,
        -1,
        2.2204460492503131e-16,
        0,
        0,
        0,
        0,
        1
      ],
      "name": ""
    },
    {
      "name": ""
    }
  ],
  "samplers": [
    {
      "magFilter": 9729,
      "minFilter": 9987,
      "wrapS": 10497,
      "wrapT": 10497
    }
  ],
  "scene": 0,
  "scenes": [
    {
      "name": "OSG_Scene",
      "nodes": [
        0
      ]
    }
  ],
  "textures": [
    {
      "sampler": 0,
      "source": 0
    }
  ]
}

